<?xml version="1.0" encoding="UTF-8"?>
<svg version="1.1" xmlns="http://www.w3.org/2000/svg" width="992" height="1056">
<path d="M0 0 C327.36 0 654.72 0 992 0 C992 348.48 992 696.96 992 1056 C664.64 1056 337.28 1056 0 1056 C0 707.52 0 359.04 0 0 Z " fill="#FCFDFC" transform="translate(0,0)"/>
<path d="M0 0 C8.00978068 6.02797927 11.80521205 17.87203443 15 27 C15.74762393 28.91814625 16.4974382 30.83532381 17.25390625 32.75 C19.35673878 39.09152638 20.33534045 44.90950876 20.44140625 51.5546875 C20.45785187 52.36198303 20.47429749 53.16927856 20.49124146 54.0010376 C20.53304604 56.62586441 20.55185782 59.24986856 20.5625 61.875 C20.56778717 62.77329529 20.57307434 63.67159058 20.57852173 64.59710693 C20.60111799 77.75279534 19.48550661 90.26743808 16.6875 103.125 C16.53306427 103.83638123 16.37862854 104.54776245 16.21951294 105.28070068 C14.69237679 112.1517618 12.82214143 118.54952879 10 125 C9.30859478 127.77888613 9.30859478 127.77888613 9 130 C8.34 130 7.68 130 7 130 C6.67 131.98 6.34 133.96 6 136 C5.34 136 4.68 136 4 136 C3.88527344 136.56847656 3.77054688 137.13695312 3.65234375 137.72265625 C2.93216646 140.2368081 1.880054 142.18162862 0.5625 144.4375 C-1.22877418 147.57478878 -2.67339188 150.63925943 -4 154 C-5.2808952 156.36741331 -6.63483481 158.67921918 -8 161 C-8.66 161 -9.32 161 -10 161 C-10.22945312 161.6909375 -10.45890625 162.381875 -10.6953125 163.09375 C-12.28407136 166.6327817 -14.47684306 169.48657247 -16.875 172.5 C-17.30941406 173.05558594 -17.74382812 173.61117187 -18.19140625 174.18359375 C-19.04715112 175.27576063 -19.90739389 176.36442071 -20.77246094 177.44921875 C-21.93508784 178.91799483 -23.06623578 180.41152921 -24.1953125 181.90625 C-24.79085938 182.5971875 -25.38640625 183.288125 -26 184 C-26.66 184 -27.32 184 -28 184 C-28.2475 184.5775 -28.495 185.155 -28.75 185.75 C-30.18299988 188.32939979 -31.78424676 190.06121592 -34 192 C-34.66 192 -35.32 192 -36 192 C-36 192.66 -36 193.32 -36 194 C-37.6796875 195.7265625 -37.6796875 195.7265625 -39.875 197.625 C-40.59429688 198.25664062 -41.31359375 198.88828125 -42.0546875 199.5390625 C-44 201 -44 201 -46 201 C-46 201.66 -46 202.32 -46 203 C-47.46809505 204.31153763 -49.00195784 205.54994075 -50.5625 206.75 C-51.93341797 207.83667969 -51.93341797 207.83667969 -53.33203125 208.9453125 C-54.86305774 210.12440464 -56.41344947 211.28098508 -58.01171875 212.3671875 C-65.44158866 217.74340798 -67.93881501 227.24405923 -70.37890625 235.7265625 C-72.08783152 241.5292155 -74.34057511 247.05487501 -76.6875 252.625 C-77.12739258 253.67534424 -77.56728516 254.72568848 -78.02050781 255.80786133 C-81.13559298 263.16142193 -84.50988519 270.32398283 -88.171875 277.41796875 C-90.97649939 282.85304499 -93.48118471 288.42807527 -96 294 C-96.66 294 -97.32 294 -98 294 C-98.32484375 295.20462891 -98.32484375 295.20462891 -98.65625 296.43359375 C-100.3924493 301.04158782 -102.84745069 304.93001596 -105.5 309.0625 C-106.03536377 309.90159912 -106.57072754 310.74069824 -107.12231445 311.60522461 C-113.61991234 321.66797847 -120.80189456 330.92358798 -128.92578125 339.7421875 C-130.79020413 341.77163463 -132.58774554 343.84034156 -134.375 345.9375 C-140.87029429 353.38222246 -147.92608669 360.38163262 -155.63671875 366.5625 C-157.34406369 368.03260384 -157.34406369 368.03260384 -157 371 C-149.41685106 374.68380604 -141.85041628 377.49590368 -133.75 379.8125 C-132.71359375 380.12380859 -131.6771875 380.43511719 -130.609375 380.75585938 C-122.91304993 383.12773319 -122.91304993 383.12773319 -115 383 C-112.78482896 381.00391181 -111.24679065 379.34424182 -109.5 377 C-108.54726789 375.79916735 -107.59414365 374.5986457 -106.640625 373.3984375 C-106.18751953 372.81288086 -105.73441406 372.22732422 -105.26757812 371.62402344 C-102.66209747 368.2858768 -99.83812385 365.14020139 -97 362 C-96.52046875 361.45472656 -96.0409375 360.90945313 -95.546875 360.34765625 C-77.40864714 340.88112383 -48.77896512 327.01744495 -22.18652344 325.66235352 C-17.39286208 325.5288844 -12.60628936 325.59945577 -7.8125 325.6875 C-6.17123548 325.69904103 -4.52995754 325.70881127 -2.88867188 325.71679688 C-1.30727754 325.73019657 0.27410484 325.74511272 1.85546875 325.76171875 C2.57220261 325.76910568 3.28893646 325.77649261 4.02738953 325.78410339 C8.42979482 325.86693955 12.65048077 326.34590917 17 327 C32.41955342 328.3298111 47.92492719 328.30073285 63.38989258 328.47680664 C66.74837988 328.51670047 70.10654057 328.56812763 73.46484375 328.62109375 C74.9807737 328.63371498 74.9807737 328.63371498 76.52732849 328.64659119 C93.55840186 328.94017065 93.55840186 328.94017065 98.125 333.5 C101.81738477 340.39245157 100.3945527 346.24463487 98.24902344 353.47070312 C94.96107434 363.75036666 90.43134948 373.01183456 83.3125 381.25 C81.24048408 383.71401893 79.96426634 385.8541673 78.5 388.6875 C76.49904423 392.438508 74.8859901 394.10682534 71 396 C70.278125 396.721875 69.55625 397.44375 68.8125 398.1875 C67.9153125 399.0846875 67.9153125 399.0846875 67 400 C66.34 400 65.68 400 65 400 C65 400.66 65 401.32 65 402 C49.70760165 415.31306311 31.48324117 423.10565922 12 428 C11.15953125 428.226875 10.3190625 428.45375 9.453125 428.6875 C-8.84900536 432.88416683 -29.60861248 429.87276574 -47.80825806 426.47584534 C-50.82614246 426.0259198 -53.55839934 425.92194951 -56.60302734 425.99755859 C-58.2153273 426.03156265 -58.2153273 426.03156265 -59.86019897 426.06625366 C-61.00719269 426.09337433 -62.1541864 426.120495 -63.3359375 426.1484375 C-65.78643123 426.1854349 -68.23695424 426.2205324 -70.6875 426.25390625 C-74.53498147 426.30941767 -78.38088842 426.37515001 -82.22753906 426.47314453 C-85.95143246 426.56426209 -89.67367331 426.61018023 -93.3984375 426.6484375 C-94.54138275 426.68770355 -95.684328 426.7269696 -96.86190796 426.76742554 C-102.65376304 426.7875487 -106.19208426 426.45767896 -110.66259766 422.58447266 C-111.80272805 421.4160158 -112.92029373 420.22450934 -114 419 C-118.94510452 414.05489548 -129.22656999 414.73367752 -135.8828125 414.44140625 C-140.13954747 413.83863551 -143.95726405 412.43280737 -148 411 C-172.95778383 401.3281244 -172.95778383 401.3281244 -198.8828125 403.01953125 C-201.49041343 404.47425396 -203.67368819 406.12851198 -206 408 C-207.66742924 409.16639882 -209.3351757 410.33237345 -211.00854492 411.49023438 C-231.2460319 425.6227872 -249.82768543 441.78730887 -267.3125 459.1875 C-267.97040527 459.84073242 -268.62831055 460.49396484 -269.30615234 461.16699219 C-273.73911622 465.61451975 -277.91677314 470.23079596 -282 475 C-282.46784912 475.54084229 -282.93569824 476.08168457 -283.41772461 476.63891602 C-298.99703029 494.67796047 -313.05353648 513.99583916 -326 534 C-326.39123047 534.59748047 -326.78246094 535.19496094 -327.18554688 535.81054688 C-328.32314214 537.5538501 -329.4452539 539.3061029 -330.5625 541.0625 C-331.52349609 542.56490234 -331.52349609 542.56490234 -332.50390625 544.09765625 C-334.07467229 547.14486035 -334.51438199 549.63275682 -335 553 C-332.9296875 553.62109375 -330.859375 554.2421875 -328.7890625 554.86328125 C-328.14689789 555.05593063 -327.50473328 555.24858002 -326.84310913 555.44706726 C-326.17687531 555.64693741 -325.51064148 555.84680756 -324.82421875 556.05273438 C-323.42447917 556.47265625 -322.02473958 556.89257812 -320.625 557.3125 C-319.94743652 557.51576904 -319.26987305 557.71903809 -318.57177734 557.9284668 C-317.22504548 558.33248635 -315.87834013 558.73659427 -314.53166199 559.14079285 C-313.20400495 559.53889577 -311.87613411 559.93628642 -310.54804993 560.33296204 C-307.71700287 561.17930112 -304.88994203 562.03459436 -302.07104492 562.9206543 C-294.43509905 565.30912498 -286.94514873 566.22292957 -279 567 C-277.93523437 567.16757812 -276.87046875 567.33515625 -275.7734375 567.5078125 C-272.82697287 567.82437482 -270.81952148 567.92716136 -268 567 C-265.76261033 564.53383838 -264.31570466 562.01449504 -262.7421875 559.08203125 C-259.90858533 554.06922382 -255.91449427 550.18155133 -252 546 C-250.89056662 544.71285418 -249.78610154 543.42140328 -248.6875 542.125 C-229.56180289 520.31730858 -204.8964718 502.51282019 -177 494 C-175.51977758 493.48217475 -174.04053676 492.96153122 -172.5625 492.4375 C-161.73347439 488.90523027 -151.5706212 487.5049908 -140.1875 487.625 C-139.51189026 487.62799103 -138.83628052 487.63098206 -138.14019775 487.63406372 C-121.70103782 487.71820361 -104.48491757 488.39271115 -88.32055664 491.51806641 C-83.36510174 492.23728323 -78.41116583 492.31495151 -73.41015625 492.46484375 C-71.07356423 492.54351657 -68.73697581 492.6222963 -66.40039062 492.70117188 C-62.75925874 492.81942671 -59.11808058 492.93576299 -55.47680664 493.04956055 C-43.08847304 493.44198972 -30.72427451 493.89872584 -18.37109375 494.94140625 C-17.46617691 495.01584457 -16.56126007 495.0902829 -15.62892151 495.16697693 C-5.3982857 496.09900481 4.12807322 497.11451219 11.69140625 504.6953125 C14.98461748 510.49529646 13.82310512 519.67709413 12.26171875 525.98046875 C11.02140574 529.10605754 9.55835787 532.0184997 8 535 C7.20028644 536.62684978 6.40225608 538.25452754 5.60546875 539.8828125 C-0.29452697 551.7281387 -6.71634978 563.84258289 -16.25390625 573.21484375 C-18.23692294 574.98194758 -18.23692294 574.98194758 -19 578 C-20.55859375 579.60546875 -20.55859375 579.60546875 -22.4375 581.1875 C-23.05496094 581.71730469 -23.67242188 582.24710938 -24.30859375 582.79296875 C-26 584 -26 584 -28 584 C-28 584.66 -28 585.32 -28 586 C-30.27539545 587.79152939 -32.5444352 589.44020506 -34.9375 591.0625 C-35.65462158 591.55057129 -36.37174316 592.03864258 -37.1105957 592.54150391 C-47.77893144 599.66453776 -58.98566623 605.60229427 -71.0703125 609.9296875 C-74.06353852 610.97608645 -74.06353852 610.97608645 -77.09765625 612.44140625 C-82.28786836 614.69381611 -87.81915238 615.79080141 -93.3125 617.0625 C-94.38951172 617.31837891 -95.46652344 617.57425781 -96.57617188 617.83789062 C-99.71350115 618.57709177 -102.8559382 619.29007529 -106 620 C-107.26154907 620.30671631 -107.26154907 620.30671631 -108.54858398 620.61962891 C-115.51397276 622.20804024 -122.31331697 622.30794394 -129.4375 622.25 C-130.68394287 622.24105713 -131.93038574 622.23211426 -133.21459961 622.22290039 C-149.41039835 622.02088468 -164.52830366 619.78541992 -180.375 616.5625 C-181.14749084 616.40544586 -181.91998169 616.24839172 -182.71588135 616.08657837 C-183.8699649 615.85193375 -183.8699649 615.85193375 -185.04736328 615.61254883 C-204.43562986 611.6713607 -222.94814238 609.6077763 -242.74194336 609.37744141 C-243.88717468 609.35969917 -243.88717468 609.35969917 -245.05554199 609.34159851 C-246.49277955 609.32024841 -247.93016356 609.30671131 -249.36755371 609.30256653 C-255.13000181 609.21139024 -259.86582115 608.28239762 -264.2890625 604.47265625 C-268.41367744 601.39106037 -272.34983128 600.95779989 -277.375 600.4375 C-279.15175431 600.2112571 -280.92779945 599.97938131 -282.703125 599.7421875 C-283.58935547 599.62456055 -284.47558594 599.50693359 -285.38867188 599.38574219 C-294.63349994 598.02010753 -303.69330438 595.78107758 -312.25 592.0078125 C-316.80614262 590.33808978 -321.54575618 589.39013991 -326.2890625 588.39453125 C-331.79723753 587.20276247 -331.79723753 587.20276247 -334 585 C-340.59963582 583.35516769 -347.21989344 582.73922667 -354 583 C-354.27972656 583.63164063 -354.55945313 584.26328125 -354.84765625 584.9140625 C-357.25900629 590.29501726 -359.79432172 595.57283857 -362.5 600.8125 C-365.40500798 606.56580214 -367.7136207 612.34606901 -369.76171875 618.453125 C-370.72541909 621.21350326 -371.77367818 623.85287032 -372.90625 626.54296875 C-375.93922982 634.03671195 -377.77195962 641.91573759 -379.73632812 649.74414062 C-382.65960362 660.59613918 -387.2925405 668.13889238 -397 674 C-403.08531021 675.84839797 -408.17433751 675.67071195 -413.9375 673.0625 C-421.09797469 669.18390954 -427.27346987 663.2821185 -431 656 C-433.19403322 645.77946194 -427.75625025 635.08742607 -423.078125 626.26953125 C-421.61648211 623.19266704 -420.47836326 620.00946083 -419.3125 616.8125 C-412.02130722 597.04904032 -403.7191835 576.57877524 -392 559 C-391.59326329 553.31764887 -392.37998658 548.76007117 -394.25 543.375 C-394.71491453 541.96269077 -395.17843334 540.5499214 -395.640625 539.13671875 C-395.87201172 538.43853027 -396.10339844 537.7403418 -396.34179688 537.02099609 C-399.15837121 528.37277563 -401.41552759 519.53806865 -403.75 510.75 C-403.97300781 509.9149292 -404.19601562 509.0798584 -404.42578125 508.21948242 C-406 502.23757493 -406 502.23757493 -406 500 C-406.7425 499.938125 -407.485 499.87625 -408.25 499.8125 C-412.0099921 498.70159324 -412.79257506 497.25304727 -415 494 C-416.49655839 490.78981681 -417.75169478 487.50087264 -419 484.1875 C-421.13981324 478.58302821 -423.34799117 473.13525051 -426.09375 467.79858398 C-429.57513057 460.88928155 -431.92216619 453.57403831 -433.6953125 446.06640625 C-435.86046246 437.52344129 -439.49792628 429.8798286 -443.375 422 C-444.68141458 419.31581751 -445.97999791 416.62795743 -447.2734375 413.9375 C-447.58916214 413.28216278 -447.90488678 412.62682556 -448.23017883 411.95162964 C-450.98370985 406.17115283 -453.38209399 400.28157587 -455.70532227 394.31689453 C-456.94262828 391.14698326 -458.23947443 388.00994545 -459.5625 384.875 C-460.37619859 382.91716438 -461.18870931 182.95883463 -462 379 C-462.602677 377.56829468 -462.602677 377.56829468 -463.2175293 376.10766602 C-466.54536957 367.89063801 -468.57893785 359.75471842 -470.25 351.0625 C-470.63285156 349.15114258 -470.63285156 349.15114258 -471.0234375 347.20117188 C-478.56516403 309.3139194 -469.27837824 271.89782177 -447.95703125 239.69921875 C-436.11420133 223.36509605 -418.35676635 201.31360159 -397.5546875 197.55859375 C-393.24723241 197.2245172 -393.24723241 197.2245172 -391 198 C-387.17230959 201.92810821 -384.667776 206.11843993 -382.3125 211.0625 C-381.98217773 211.74006348 -381.65185547 212.41762695 -381.31152344 213.11572266 C-380.19884695 215.40631567 -379.09963417 217.70312005 -378 220 C-377.13441366 221.78790524 -376.26851716 223.57566035 -375.40234375 225.36328125 C-374.51735114 227.20009805 -373.63322609 229.03733312 -372.75 230.875 C-372.33790283 231.729729 -371.92580566 232.58445801 -371.5012207 233.46508789 C-369.10562161 238.49181529 -366.91534649 243.55715474 -364.8972168 248.74731445 C-364.01298785 250.96739077 -363.05666473 253.13973273 -362.0625 255.3125 C-360.40837434 258.96966845 -358.97084236 262.67898632 -357.5625 266.4375 C-356.0779877 270.35697455 -354.51096568 274.1029211 -352.5625 277.8125 C-350.00277233 282.73937395 -348.13075734 287.83565482 -346.23291016 293.04174805 C-344.78483826 296.9874417 -343.23077837 300.81920232 -341.4375 304.625 C-339.00607981 309.80633312 -337.13141563 315.12044811 -335.25390625 320.5234375 C-334.08642324 323.76038417 -332.80018014 326.90374909 -331.4375 330.0625 C-325.6575883 343.73071887 -322.61149782 357.1674645 -322.75 372 C-322.76341431 373.6406543 -322.76341431 373.6406543 -322.77709961 375.31445312 C-323.11976388 399.6169846 -327.18992665 423.92357356 -340 445 C-340.3913916 445.64694824 -340.7827832 446.29389648 -341.18603516 446.96044922 C-348.53838254 458.84756463 -357.77653677 470.71211255 -368.9375 479.24609375 C-369.618125 479.82488281 -370.29875 480.40367187 -371 481 C-371.35454324 490.39539591 -366.51680919 501.95669807 -362 510 C-361.34 510.33 -360.68 510.66 -360 511 C-359.79375 510.3503125 -359.5875 509.700625 -359.375 509.03125 C-357.44815956 504.78344267 -354.75987517 501.2448135 -352 497.5 C-351.41476562 496.69973389 -350.82953125 495.89946777 -350.2265625 495.07495117 C-348.49195014 492.71092638 -346.74799646 490.35413993 -345 488 C-344.54496094 487.38463379 -344.08992187 486.76926758 -343.62109375 486.13525391 C-328.02512499 465.13080851 -310.18602214 445.81174439 -289.83984375 429.375 C-286.8628671 426.88531389 -284.01881495 424.27652668 -281.1875 421.625 C-276.42419732 417.17925083 -271.44905876 413.11699264 -266.29516602 409.13427734 C-261.03794574 405.06412448 -255.94716907 400.82318802 -250.91015625 396.484375 C-249.17504592 395.00312645 -247.41856532 393.54554531 -245.62109375 392.140625 C-239.07617393 386.92455987 -234.56705359 380.78451468 -233.5625 372.30859375 C-233.37169459 360.49058396 -236.10047152 350.43498475 -239.67724609 339.31933594 C-248 313.42067473 -248 313.42067473 -248 303 C-249.32 303 -250.64 303 -252 303 C-252 302.34 -252 301.68 -252 301 C-252.598125 300.979375 -253.19625 300.95875 -253.8125 300.9375 C-256 300 -256 300 -257.5625 296.875 C-258.04538228 295.58471779 -258.52457596 294.2930489 -259 293 C-259.474375 291.989375 -259.94875 290.97875 -260.4375 289.9375 C-262.3803204 285.44787359 -263.50995816 280.71182704 -264.7421875 275.98828125 C-266.0073511 271.66095631 -267.79028447 267.56884193 -269.55078125 263.42358398 C-271.13168803 259.68890477 -272.6667092 255.93756179 -274.19140625 252.1796875 C-274.46625854 251.50308578 -274.74111084 250.82648407 -275.02429199 250.12937927 C-275.58699691 248.74374189 -276.14945443 247.35800401 -276.71166992 245.97216797 C-277.56431951 243.87051517 -278.41783719 241.76921652 -279.27148438 239.66796875 C-280.36479559 236.97616468 -281.45621086 234.28360496 -282.54589844 231.59033203 C-283.41519272 229.44395162 -284.28726665 227.29868892 -285.16503906 225.15576172 C-287.5479907 219.29968685 -289.64171383 213.37751211 -291.625 207.375 C-291.9240625 206.48554688 -292.223125 205.59609375 -292.53125 204.6796875 C-299.99767498 182.21433801 -300.77400178 156.92333009 -294.55126953 134.03125 C-294.02800566 132.1031918 -293.55736677 130.1610774 -293.08984375 128.21875 C-287.52161002 106.42791325 -273.96214063 88.99907815 -255 77 C-241.99160129 69.84070143 -241.99160129 69.84070143 -235.3125 69.9375 C-234.50425781 69.94652344 -233.69601562 69.95554687 -232.86328125 69.96484375 C-232.24839844 69.97644531 -231.63351562 69.98804688 -231 70 C-229.78541454 72.42917093 -228.57123669 74.8585309 -227.359375 77.2890625 C-226.56586757 78.87151697 -225.7665876 80.45114784 -224.953125 82.0234375 C-221.9444691 87.8681215 -219.48937149 93.91989872 -217 100 C-216.14695587 102.04213594 -215.29280573 104.08381025 -214.4375 106.125 C-213.62367623 108.08278359 -212.81112849 110.0410982 -212 112 C-211.43925781 113.35158203 -211.43925781 113.35158203 -210.8671875 114.73046875 C-209.39871228 118.32551363 -208.05072139 121.81930503 -207 125.5625 C-205.98151016 129.06355882 -204.64141784 132.20231902 -203.09765625 135.49609375 C-201.91915119 138.18442736 -200.89417733 140.91606018 -199.87670898 143.66870117 C-198.8982574 146.27054862 -197.87237056 148.85118059 -196.84375 151.43359375 C-184.98184238 181.55287279 -180.86213561 218.60448901 -194.140625 249.2578125 C-199.6170583 260.79700806 -207.99597198 271.99597198 -217 281 C-217.12115124 286.61334091 -215.82568408 291.73773412 -214 297 C-213.71302108 298.64309499 -213.44440425 300.28943499 -213.1875 301.9375 C-211.84060706 309.73023771 -209.71110228 318.64571069 -205.51806641 325.38012695 C-203.97913537 328.0360081 -203.17329928 330.34146273 -202.39453125 333.30078125 C-202.13349609 334.27724609 -201.87246094 335.25371094 -201.60351562 336.25976562 C-201.34248047 337.26716797 -201.08144531 338.27457031 -200.8125 339.3125 C-200.40354492 340.85260742 -200.40354492 340.85260742 -199.98632812 342.42382812 C-199.31726852 344.94747401 -198.65541641 347.47278302 -198 350 C-196.14298534 350.65437788 -196.14298534 350.65437788 -194 351 C-190.9762438 349.44759441 -190.9762438 349.44759441 -187.875 347.125 C-187.01612183 346.51132568 -187.01612183 346.51132568 -186.13989258 345.88525391 C-180.74817446 341.96141058 -175.86854843 337.54902366 -171 333 C-169.67113154 331.84899156 -168.33800459 330.70287517 -167 329.5625 C-145.65774082 310.88265545 -127.42236893 286.01144219 -117.1875 259.4375 C-112.93069062 248.40198996 -107.52827771 237.63733879 -101.97265625 227.203125 C-99.51077378 221.62681289 -98.70620087 216.29626184 -98.72875977 210.25488281 C-98.72353302 209.51384811 -98.71830627 208.77281342 -98.71292114 208.00932312 C-98.70273261 206.40962065 -98.69690978 204.8098855 -98.69503975 203.21015167 C-98.69134178 200.65864568 -98.67451589 198.10751673 -98.65428162 195.55609131 C-98.59924298 188.30455641 -98.56846488 181.05296422 -98.54370117 173.80126953 C-98.52759826 169.35153854 -98.49713798 164.90206957 -98.45893669 160.4524765 C-98.44747031 158.77681058 -98.44135799 157.1010973 -98.44125557 155.42539215 C-98.43990698 139.21374105 -96.00696923 123.69909626 -92.5625 107.875 C-92.37107422 106.93914062 -92.17964844 106.00328125 -91.98242188 105.0390625 C-90.66800664 98.94766246 -88.72648555 93.59313314 -86 88 C-85.47019531 86.83855469 -84.94039062 85.67710937 -84.39453125 84.48046875 C-80.42361443 76.21507893 -75.74826812 69.18533515 -70 62 C-69.05044731 60.78513112 -68.10259609 59.56893088 -67.15625 58.3515625 C-64.45612062 54.88588609 -61.74401034 51.43105075 -59 48 C-58.54818359 47.4234668 -58.09636719 46.84693359 -57.63085938 46.25292969 C-56.46621825 44.79755458 -55.23785316 43.3936374 -54 42 C-53.34 42 -52.68 42 -52 42 C-51.78601563 41.45988281 -51.57203125 40.91976562 -51.3515625 40.36328125 C-49.51364088 37.14957437 -47.0033152 34.75081385 -44.375 32.1875 C-43.83375488 31.65342529 -43.29250977 31.11935059 -42.73486328 30.5690918 C-39.25124417 27.15543528 -35.69405877 23.85832566 -31.9765625 20.69921875 C-29.68318327 18.72763779 -27.47321544 16.67529868 -25.25 14.625 C-7.74802349 -1.19200361 -7.74802349 -1.19200361 0 0 Z " fill="#5E7A4C" transform="translate(702,166)"/>
<path d="M0 0 C3.82769041 3.92810821 6.332224 8.11843993 8.6875 13.0625 C9.01782227 13.74006348 9.34814453 14.41762695 9.68847656 15.11572266 C10.80115305 17.40631567 11.90036583 19.70312005 13 22 C13.86558634 23.78790524 14.73148284 25.57566035 15.59765625 27.36328125 C16.48264886 29.20009805 17.36677391 31.03733312 18.25 32.875 C18.66209717 33.729729 19.07419434 34.58445801 19.4987793 35.46508789 C21.89437839 40.49181529 24.08465351 45.55715474 26.1027832 50.74731445 C26.98701215 52.96739077 27.94333527 55.13973273 28.9375 57.3125 C30.59162566 60.96966845 32.02915764 64.67898632 33.4375 68.4375 C34.9220123 72.35697455 36.48903432 76.1029211 38.4375 79.8125 C40.99722767 84.73937395 42.86924266 89.83565482 44.76708984 95.04174805 C46.21516174 98.9874417 47.76922163 102.81920232 49.5625 106.625 C51.99392019 111.80633312 53.86858437 117.12044811 55.74609375 122.5234375 C56.91357676 125.76038417 58.19981986 128.90374909 59.5625 132.0625 C65.3424117 145.73071887 68.38850218 159.1674645 68.25 174 C68.24105713 175.09376953 68.23211426 176.18753906 68.22290039 177.31445312 C67.88023612 201.6169846 63.81007335 225.92357356 51 247 C50.6086084 247.64694824 50.2172168 248.29389648 49.81396484 248.96044922 C41.85499205 261.8283434 31.8530193 273.56856529 20 283 C19.34 283.99 18.68 284.98 18 286 C18 285.34 18 284.68 18 284 C17.071875 284.7425 17.071875 284.7425 16.125 285.5 C14 287 14 287 12 287 C12 287.66 12 288.32 12 289 C11.34 289 10.68 289 10 289 C10 289.66 10 290.32 10 291 C4.70588235 295 4.70588235 295 1 295 C0.773125 295.78375 0.54625 296.5675 0.3125 297.375 C-1 300 -1 300 -3.125 301.3125 C-6.86516866 302.20688816 -10.15711298 302.13026736 -14 302 C-14.33 302.66 -14.66 303.32 -15 304 C-15 303.34 -15 302.68 -15 302 C-15.7425 301.938125 -16.485 301.87625 -17.25 301.8125 C-21.0099921 300.70159324 -21.79257506 299.25304727 -24 296 C-25.49655839 292.78981681 -26.75169478 289.50087264 -28 286.1875 C-30.13981324 280.58302821 -32.34799117 275.13525051 -35.09375 269.79858398 C-38.57513057 262.88928155 -40.92216619 255.57403831 -42.6953125 248.06640625 C-44.86046246 239.52344129 -48.49792628 231.8798286 -52.375 224 C-53.68141458 221.31581751 -54.97999791 218.62795743 -56.2734375 215.9375 C-56.58916214 215.28216278 -56.90488678 214.62682556 -57.23017883 213.95162964 C-59.98370985 208.17115283 -62.38209399 202.28157587 -64.70532227 196.31689453 C-65.94262828 193.14698326 -67.23947443 190.00994545 -68.5625 186.875 C-69.37619859 184.91716438 -70.18870931 182.95883463 -71 181 C-71.602677 179.56829468 -71.602677 179.56829468 -72.2175293 178.10766602 C-75.54536957 169.89063801 -77.57893785 161.75471842 -79.25 153.0625 C-79.63285156 151.15114258 -79.63285156 151.15114258 -80.0234375 149.20117188 C-87.56516403 111.3139194 -78.27837824 73.89782177 -56.95703125 41.69921875 C-46.66698646 27.50676177 -20.60579223 -7.11071865 0 0 Z " fill="#B3D95B" transform="translate(311,364)"/>
<path d="M0 0 C0.67560974 0.00299103 1.35121948 0.00598206 2.04730225 0.00906372 C18.48646218 0.09320361 35.70258243 0.76771115 51.86694336 3.89306641 C56.82239826 4.61228323 61.77633417 4.68995151 66.77734375 4.83984375 C69.11393577 4.91851657 71.45052419 4.9972963 73.78710938 5.07617188 C77.42824126 5.19442671 81.06941942 5.31076299 84.71069336 5.42456055 C97.09902696 5.81698972 109.46322549 6.27372584 121.81640625 7.31640625 C122.72132309 7.39084457 123.62623993 7.4652829 124.55857849 7.54197693 C134.7892143 8.47400481 144.31557322 9.48951219 151.87890625 17.0703125 C155.17211748 22.87029646 154.01060512 32.05209413 152.44921875 38.35546875 C151.20890574 41.48105754 149.74585787 44.3934997 148.1875 47.375 C147.38778644 49.00184978 146.58975608 50.62952754 145.79296875 52.2578125 C139.89297303 64.1031387 133.47115022 76.21758289 123.93359375 85.58984375 C121.95057706 87.35694758 121.95057706 87.35694758 121.1875 90.375 C119.62890625 91.98046875 119.62890625 91.98046875 117.75 93.5625 C117.13253906 94.09230469 116.51507812 94.62210938 115.87890625 95.16796875 C114.1875 96.375 114.1875 96.375 112.1875 96.375 C112.1875 97.035 112.1875 97.695 112.1875 98.375 C109.91210455 100.16652939 107.6430648 101.81520506 105.25 103.4375 C104.53287842 103.92557129 103.81575684 104.41364258 103.0769043 104.91650391 C92.40856856 112.03953776 81.20183377 117.97729427 69.1171875 122.3046875 C66.12396148 123.35108645 66.12396148 123.35108645 63.08984375 124.81640625 C57.89963164 127.06881611 52.36834762 128.16580141 46.875 129.4375 C45.79798828 129.69337891 44.72097656 129.94925781 43.61132812 130.21289062 C40.47399885 130.95209177 37.3315618 131.66507529 34.1875 132.375 C33.34646729 132.57947754 32.50543457 132.78395508 31.63891602 132.99462891 C24.67352724 134.58304024 17.87418303 134.68294394 10.75 134.625 C9.50355713 134.61605713 8.25711426 134.60711426 6.97290039 134.59790039 C-9.22289835 134.39588468 -24.34080366 132.16041992 -40.1875 128.9375 C-40.95999084 128.78044586 -41.73248169 128.62339172 -42.52838135 128.46157837 C-43.29777039 128.30514862 -44.06715942 128.14871887 -44.85986328 127.98754883 C-64.24812986 124.0463607 -82.76064238 121.9827763 -102.55444336 121.75244141 C-103.31793091 121.74061325 -104.08141846 121.7287851 -104.86804199 121.71659851 C-106.30527955 121.69524841 -107.74266356 121.68171131 -109.18005371 121.67756653 C-115.0421406 121.5848137 -119.89793594 120.3540557 -124.6875 116.9375 C-125.58082031 116.32068359 -125.58082031 116.32068359 -126.4921875 115.69140625 C-126.92789062 115.25699219 -127.36359375 114.82257813 -127.8125 114.375 C-127.8125 113.385 -127.8125 112.395 -127.8125 111.375 C-128.5744583 109.76673378 -129.39459396 108.18557079 -130.25 106.625 C-133.87355942 99.42964629 -134.22227038 95.20025846 -131.875 87.4375 C-131.20135742 85.41200518 -130.51833342 83.38950311 -129.8125 81.375 C-132.1225 81.375 -134.4325 81.375 -136.8125 81.375 C-136.8125 81.045 -136.8125 80.715 -136.8125 80.375 C-136.24402344 80.43042969 -135.67554688 80.48585938 -135.08984375 80.54296875 C-132.34688848 80.56586487 -130.39205245 80.34388487 -127.8125 79.375 C-125.69264471 76.8815821 -124.22231348 74.27633335 -122.625 71.421875 C-119.6862436 66.48172416 -115.72365994 62.55298953 -111.8125 58.375 C-110.70306662 57.08785418 -109.59860154 55.79640328 -108.5 54.5 C-89.37430289 32.69230858 -64.7089718 14.88782019 -36.8125 6.375 C-35.33227758 5.85717475 -33.85303676 5.33653122 -32.375 4.8125 C-21.54597439 1.28023027 -11.3831212 -0.1200092 0 0 Z " fill="#B6D663" transform="translate(561.8125,653.625)"/>
<path d="M0 0 C1.21236328 0.01353516 1.21236328 0.01353516 2.44921875 0.02734375 C3.37154297 0.04474609 3.37154297 0.04474609 4.3125 0.0625 C5.52708546 2.49167093 6.74126331 4.9210309 7.953125 7.3515625 C8.74663243 8.93401697 9.5459124 10.51364784 10.359375 12.0859375 C13.3680309 17.9306215 15.82312851 23.98239872 18.3125 30.0625 C19.16554413 32.10463594 20.01969427 34.14631025 20.875 36.1875 C21.68882377 38.14528359 22.50137151 40.1035982 23.3125 42.0625 C23.68632812 42.96355469 24.06015625 43.86460937 24.4453125 44.79296875 C25.91378772 48.38801363 27.26177861 51.88180503 28.3125 55.625 C29.33098984 59.12605882 30.67108216 62.26481902 32.21484375 65.55859375 C33.39334881 68.24692736 34.41832267 70.97856018 35.43579102 73.73120117 C36.4142426 76.33304862 37.44012944 78.91368059 38.46875 81.49609375 C50.33065762 111.61537279 54.45036439 148.66698901 41.171875 179.3203125 C35.27062188 191.75463061 26.11856978 203.49828396 16.3125 213.0625 C16.3125 212.4025 16.3125 211.7425 16.3125 211.0625 C15.6525 211.0625 14.9925 211.0625 14.3125 211.0625 C13.9825 212.0525 13.6525 213.0425 13.3125 214.0625 C11.67578125 215.7109375 11.67578125 215.7109375 9.625 217.4375 C8.90441406 218.0459375 8.18382812 218.654375 7.44140625 219.28125 C6.73886719 219.8690625 6.03632813 220.456875 5.3125 221.0625 C4.74402344 221.5678125 4.17554688 222.073125 3.58984375 222.59375 C0.94877659 224.91734873 -1.12265459 226.65117168 -4.6875 227.0625 C-4.6875 227.7225 -4.6875 228.3825 -4.6875 229.0625 C-9.1425 230.0525 -9.1425 230.0525 -13.6875 231.0625 C-13.6875 231.7225 -13.6875 232.3825 -13.6875 233.0625 C-14.6775 233.0625 -15.6675 233.0625 -16.6875 233.0625 C-16.6875 232.4025 -16.6875 231.7425 -16.6875 231.0625 C-17.285625 231.041875 -17.88375 231.02125 -18.5 231 C-20.6875 230.0625 -20.6875 230.0625 -22.25 226.9375 C-22.73288228 225.64721779 -23.21207596 224.3555489 -23.6875 223.0625 C-24.161875 222.051875 -24.63625 221.04125 -25.125 220 C-27.0678204 215.51037359 -28.19745816 210.77432704 -29.4296875 206.05078125 C-30.6948511 201.72345631 -32.47778447 197.63134193 -34.23828125 193.48608398 C-35.81918803 189.75140477 -37.3542092 186.00006179 -38.87890625 182.2421875 C-39.15375854 181.56558578 -39.42861084 180.88898407 -39.71179199 180.19187927 C-40.27449691 178.80624189 -40.83695443 177.42050401 -41.39916992 176.03466797 C-42.25181951 173.93301517 -43.10533719 171.83171652 -43.95898438 169.73046875 C-45.05229559 167.03866468 -46.14371086 164.34610496 -47.23339844 161.65283203 C-48.10269272 159.50645162 -48.97476665 157.36118892 -49.85253906 155.21826172 C-52.2354907 149.36218685 -54.32921383 143.44001211 -56.3125 137.4375 C-56.6115625 136.54804688 -56.910625 135.65859375 -57.21875 134.7421875 C-64.68517498 112.27683801 -65.46150178 86.98583009 -59.23876953 64.09375 C-58.71550566 62.1656918 -58.24486677 60.2235774 -57.77734375 58.28125 C-52.20911002 36.49041325 -38.64964063 19.06157815 -19.6875 7.0625 C-6.67910129 -0.09679857 -6.67910129 -0.09679857 0 0 Z " fill="#AED65D" transform="translate(466.6875,235.9375)"/>
<path d="M0 0 C2.47004176 0.03157233 4.93944281 0.04103177 7.40966797 0.046875 C9.00472777 0.05603328 10.59978118 0.06640527 12.19482422 0.078125 C12.92096924 0.08237488 13.64711426 0.08662476 14.39526367 0.09100342 C18.82862249 0.15257068 23.06591647 0.61868277 27.44482422 1.28125 C42.86437764 2.6110611 58.36975141 2.58198285 73.8347168 2.75805664 C77.1932041 2.79795047 80.55136479 2.84937763 83.90966797 2.90234375 C84.92028793 2.9107579 85.9309079 2.91917206 86.97215271 2.92784119 C104.00322608 3.22142065 104.00322608 3.22142065 108.56982422 7.78125 C112.26220899 14.67370157 110.83937692 20.52588487 108.69384766 27.75195312 C105.40589856 38.03161666 100.8761737 47.29308456 93.75732422 55.53125 C91.6853083 57.99526893 90.40909056 60.1354173 88.94482422 62.96875 C86.94386845 66.719758 85.33081431 68.38807534 81.44482422 70.28125 C80.72294922 71.003125 80.00107422 71.725 79.25732422 72.46875 C78.65919922 73.066875 78.06107422 73.665 77.44482422 74.28125 C76.78482422 74.28125 76.12482422 74.28125 75.44482422 74.28125 C75.44482422 74.94125 75.44482422 75.60125 75.44482422 76.28125 C60.15242587 89.59431311 41.92806539 97.38690922 22.44482422 102.28125 C21.60435547 102.508125 20.76388672 102.735 19.89794922 102.96875 C1.59581886 107.16541683 -19.16378827 104.15401574 -37.36343384 100.75709534 C-40.38131825 100.3071698 -43.11357512 100.20319951 -46.15820312 100.27880859 C-47.77050308 100.31281265 -47.77050308 100.31281265 -49.41537476 100.34750366 C-50.56236847 100.37462433 -51.70936218 100.401745 -52.89111328 100.4296875 C-55.34160701 100.4666849 -57.79213003 100.5017824 -60.24267578 100.53515625 C-64.09015726 100.59066767 -67.9360642 100.65640001 -71.78271484 100.75439453 C-75.50660824 100.84551209 -79.22884909 100.89143023 -82.95361328 100.9296875 C-84.09655853 100.96895355 -85.23950378 101.0082196 -86.41708374 101.04867554 C-92.20893882 101.0687987 -95.74726004 100.73892896 -100.21777344 96.86572266 C-101.35790383 95.6972658 -102.47546952 94.50575934 -103.55517578 93.28125 C-108.5935494 88.24287638 -119.16799486 89.00162631 -125.92626953 88.72265625 C-128.90073886 88.22322826 -130.32239371 87.26066673 -132.55517578 85.28125 C-129.86754312 85.59264051 -127.1800721 85.90533157 -124.49267578 86.21875 C-123.74050781 86.30576172 -122.98833984 86.39277344 -122.21337891 86.48242188 C-117.64929359 87.01588639 -113.10124044 87.61111298 -108.55517578 88.28125 C-108.84134766 86.81365234 -108.84134766 86.81365234 -109.13330078 85.31640625 C-110.54766117 77.28632387 -111.01489361 71.44428993 -106.55517578 64.28125 C-105.87832957 62.9530552 -105.20873914 61.62105489 -104.55517578 60.28125 C-105.54517578 59.62125 -106.53517578 58.96125 -107.55517578 58.28125 C-106.98154297 58.054375 -106.40791016 57.8275 -105.81689453 57.59375 C-102.92994525 55.91842192 -101.41858979 53.91120166 -99.36767578 51.28125 C-74.0813474 19.64240192 -41.24958501 -0.53128868 0 0 Z " fill="#B5D764" transform="translate(691.55517578125,491.71875)"/>
<path d="M0 0 C8.00978068 6.02797927 11.80521205 17.87203443 15 27 C15.74762393 28.91814625 16.4974382 30.83532381 17.25390625 32.75 C19.35673878 39.09152638 20.33534045 44.90950876 20.44140625 51.5546875 C20.45785187 52.36198303 20.47429749 53.16927856 20.49124146 54.0010376 C20.53304604 56.62586441 20.55185782 59.24986856 20.5625 61.875 C20.56778717 62.77329529 20.57307434 63.67159058 20.57852173 64.59710693 C20.60111799 77.75279534 19.48550661 90.26743808 16.6875 103.125 C16.53306427 103.83638123 16.37862854 104.54776245 16.21951294 105.28070068 C14.69237679 112.1517618 12.82214143 118.54952879 10 125 C9.30859478 127.77888613 9.30859478 127.77888613 9 130 C8.34 130 7.68 130 7 130 C6.505 132.97 6.505 132.97 6 136 C5.34 136 4.68 136 4 136 C3.88527344 136.56847656 3.77054688 137.13695312 3.65234375 137.72265625 C2.93216646 140.2368081 1.880054 142.18162862 0.5625 144.4375 C-1.22877418 147.57478878 -2.67339188 150.63925943 -4 154 C-5.2808952 156.36741331 -6.63483481 158.67921918 -8 161 C-8.66 161 -9.32 161 -10 161 C-10.22945312 161.6909375 -10.45890625 162.381875 -10.6953125 163.09375 C-12.28407136 166.6327817 -14.47684306 169.48657247 -16.875 172.5 C-17.30941406 173.05558594 -17.74382812 173.61117187 -18.19140625 174.18359375 C-19.04715112 175.27576063 -19.90739389 176.36442071 -20.77246094 177.44921875 C-21.93508784 178.91799483 -23.06623578 180.41152921 -24.1953125 181.90625 C-24.79085937 182.5971875 -25.38640625 183.288125 -26 184 C-26.66 184 -27.32 184 -28 184 C-28.2475 184.5775 -28.495 185.155 -28.75 185.75 C-30.18299988 188.32939979 -31.78424676 190.06121592 -34 192 C-34.66 192 -35.32 192 -36 192 C-36 192.66 -36 193.32 -36 194 C-37.6796875 195.7265625 -37.6796875 195.7265625 -39.875 197.625 C-40.59429688 198.25664062 -41.31359375 198.88828125 -42.0546875 199.5390625 C-44 201 -44 201 -46 201 C-46 201.66 -46 202.32 -46 203 C-47.46809505 204.31153763 -49.00195784 205.54994075 -50.5625 206.75 C-51.47257813 207.4615625 -52.38265625 208.173125 -53.3203125 208.90625 C-54.20460938 209.5971875 -55.08890625 210.288125 -56 211 C-60.75083153 214.81945235 -60.75083153 214.81945235 -64.75 219.375 C-65.36875 220.179375 -65.36875 220.179375 -66 221 C-66.99 221 -67.98 221 -69 221 C-70.38911667 221.92891851 -71.7392959 222.91687978 -73.0625 223.9375 C-77.81591365 227.19964662 -82.19065693 228.77597723 -88 228 C-92.10628303 224.73603144 -93.35674252 219.84760955 -95 215 C-95.99 215.33 -96.98 215.66 -98 216 C-98.07013295 206.2886271 -98.12312749 196.57734404 -98.15543652 186.86577129 C-98.17095892 182.35418817 -98.19194497 177.84278083 -98.22631836 173.33129883 C-98.25939943 168.96107622 -98.2769533 164.59102049 -98.28463173 160.22068214 C-98.29008931 158.57008049 -98.30074003 156.91948585 -98.31719017 155.26895714 C-98.4321146 143.23721665 -97.21656014 131.82343706 -95 120 C-94.77459534 118.79408707 -94.54919067 117.58817413 -94.31695557 116.34571838 C-93.76993688 113.51271009 -93.17617198 110.69424553 -92.5625 107.875 C-92.37107422 106.93914062 -92.17964844 106.00328125 -91.98242188 105.0390625 C-90.66800664 98.94766246 -88.72648555 93.59313314 -86 88 C-85.47019531 86.83855469 -84.94039062 85.67710937 -84.39453125 84.48046875 C-80.42361443 76.21507893 -75.74826812 69.18533515 -70 62 C-69.05044731 60.78513112 -68.10259609 59.56893088 -67.15625 58.3515625 C-64.45612062 54.88588609 -61.74401034 51.43105075 -59 48 C-58.54818359 47.4234668 -58.09636719 46.84693359 -57.63085938 46.25292969 C-56.46621825 44.79755458 -55.23785316 43.3936374 -54 42 C-53.34 42 -52.68 42 -52 42 C-51.78601563 41.45988281 -51.57203125 40.91976562 -51.3515625 40.36328125 C-49.51364088 37.14957437 -47.0033152 34.75081385 -44.375 32.1875 C-43.83375488 31.65342529 -43.29250977 31.11935059 -42.73486328 30.5690918 C-39.25124417 27.15543528 -35.69405877 23.85832566 -31.9765625 20.69921875 C-29.68318327 18.72763779 -27.47321544 16.67529868 -25.25 14.625 C-7.74802349 -1.19200361 -7.74802349 -1.19200361 0 0 Z " fill="#B4DB61" transform="translate(702,166)"/>
<path d="M0 0 C3.31814414 1.65907207 3.64834232 5.27562149 4.8046875 8.65234375 C5.81883455 11.07747049 5.81883455 11.07747049 7.83203125 12.3515625 C12.00258653 13.59897183 15.96325795 12.34558068 20 11 C22.53950277 9.50972506 24.68166123 7.83535152 27 6 C27.66 6 28.32 6 29 6 C29.33 5.34 29.66 4.68 30 4 C29.40546697 13.59453303 29.40546697 13.59453303 26 17 C26 16.01 26 15.02 26 14 C25.505 14.45375 25.01 14.9075 24.5 15.375 C19.9759994 18.31560039 15.60286879 19.08014344 10.25 18.8125 C7.0569558 18.01423895 5.31345957 17.31345957 3 15 C3 14.34 3 13.68 3 13 C2.34 13 1.68 13 1 13 C1 11.35 1 9.7 1 8 C0.34 8 -0.32 8 -1 8 C-1.66 6.68 -2.32 5.36 -3 4 C-2.01 2.68 -1.02 1.36 0 0 Z " fill="#7B9D4E" transform="translate(606,380)"/>
<path d="M0 0 C2.8205945 3.27863976 3.90931959 6.35415303 5.0625 10.5 C5.38347656 11.6240625 5.70445312 12.748125 6.03515625 13.90625 C8.47329619 23.71151272 9.36062886 33.28563428 9.3125 43.375 C9.30831055 44.58728271 9.30412109 45.79956543 9.29980469 47.04858398 C9.1180522 61.78310381 8.38192498 77.45865665 2 91 C0.41963052 86.983647 1.65210336 83.96813568 2.8125 79.9375 C9.39818501 55.35169832 8.84153853 29.66931164 0.76953125 5.57421875 C0 3 0 3 0 0 Z " fill="#CFEC98" transform="translate(506,323)"/>
<path d="M0 0 C1 2 1 2 -0.125 5.5625 C-2.18354222 13.25421518 2.49220515 20.34728563 6 27 C-1.55137932 27.30071865 -8.58856436 26.42625566 -16 25 C-16 24.67 -16 24.34 -16 24 C-11.1666528 23.91666643 -6.76307437 24.04738513 -2 25 C-2.165 23.9275 -2.33 22.855 -2.5 21.75 C-2.94201204 18.10340071 -3.15921298 14.4848351 -3.25 10.8125 C-3.27578125 9.82894531 -3.3015625 8.84539063 -3.328125 7.83203125 C-2.94883221 4.55837326 -1.86378938 2.68287577 0 0 Z " fill="#7C945C" transform="translate(430,740)"/>
<path d="M0 0 C1.06287231 0.20568604 1.06287231 0.20568604 2.1472168 0.41552734 C12.36436419 2.20474952 22.46422107 2.43817635 32.8125 2.625 C34.58400142 2.66328169 36.35548626 2.70233889 38.12695312 2.7421875 C42.41783037 2.83705004 46.708794 2.92147313 51 3 C51 3.33 51 3.66 51 4 C43.33568476 4.40287747 35.66984339 4.72289889 28 5 C26.92218262 5.0422168 25.84436523 5.08443359 24.73388672 5.12792969 C21.6142525 5.23909071 18.49594888 5.31254577 15.375 5.375 C14.41070068 5.41302734 13.44640137 5.45105469 12.45288086 5.49023438 C5.87653463 5.56986959 5.87653463 5.56986959 3.24707031 3.86035156 C1.8515625 2.4765625 1.8515625 2.4765625 0 0 Z " fill="#C1D791" transform="translate(591,587)"/>
<path d="M0 0 C3.31256692 1.65628346 3.69428018 5.19949881 4.90234375 8.5546875 C5.99524819 10.98941411 7.0987348 12.19081887 9 14 C9 14.66 9 15.32 9 16 C11.31 16.33 13.62 16.66 16 17 C15.34 17.66 14.68 18.32 14 19 C9.49354269 18.74964126 6.25629805 18.25629805 3 15 C3 14.34 3 13.68 3 13 C2.34 13 1.68 13 1 13 C1 11.35 1 9.7 1 8 C0.34 8 -0.32 8 -1 8 C-1.66 6.68 -2.32 5.36 -3 4 C-2.01 2.68 -1.02 1.36 0 0 Z " fill="#719740" transform="translate(606,380)"/>
<path d="M0 0 C0.99 0.33 1.98 0.66 3 1 C2.175 1.680625 1.35 2.36125 0.5 3.0625 C-3.39460197 6.3048959 -7.19721982 9.65085096 -11 13 C-11.66 12.34 -12.32 11.68 -13 11 C-12.01 10.67 -11.02 10.34 -10 10 C-10 9.01 -10 8.02 -10 7 C-7.91796875 5.140625 -7.91796875 5.140625 -5.1875 3.25 C-3.84751953 2.29867187 -3.84751953 2.29867187 -2.48046875 1.328125 C-1.25263672 0.67070313 -1.25263672 0.67070313 0 0 Z M-17 13 C-16.01 13.33 -15.02 13.66 -14 14 C-15.62255228 15.48185125 -17.24811888 16.96040256 -18.875 18.4375 C-19.77992188 19.26121094 -20.68484375 20.08492187 -21.6171875 20.93359375 C-24 23 -24 23 -26 24 C-24.44095325 20.17324889 -21.96833913 17.81992217 -19 15 C-18.34 14.34 -17.68 13.68 -17 13 Z " fill="#678351" transform="translate(469,562)"/>
<path d="M0 0 C0.68835938 0.59748047 0.68835938 0.59748047 1.390625 1.20703125 C2.00421875 1.73683594 2.6178125 2.26664063 3.25 2.8125 C3.85328125 3.33457031 4.4565625 3.85664062 5.078125 4.39453125 C6.02945313 5.18923828 6.02945313 5.18923828 7 6 C7.5878125 6.51755859 8.175625 7.03511719 8.78125 7.56835938 C11.49735147 9.32091429 13.20825821 9.42245162 16.421875 9.51171875 C17.44667969 9.54716797 18.47148438 9.58261719 19.52734375 9.61914062 C20.59082031 9.64169922 21.65429688 9.66425781 22.75 9.6875 C23.82894531 9.72166016 24.90789063 9.75582031 26.01953125 9.79101562 C28.67958377 9.87340663 31.33931035 9.94258645 34 10 C34 10.33 34 10.66 34 11 C29.97941398 11.11686443 25.95926918 11.18747388 21.9375 11.25 C20.2369043 11.30027344 20.2369043 11.30027344 18.50195312 11.3515625 C11.80186458 11.42969764 7.32924437 11.25141967 2 7 C0.86767976 4.60897297 0.45764669 2.64418088 0 0 Z " fill="#E2F0CD" transform="translate(585,582)"/>
<path d="M0 0 C0.33 0 0.66 0 1 0 C0.67 2.97 0.34 5.94 0 9 C-0.66 8.01 -1.32 7.02 -2 6 C-2.66 6 -3.32 6 -4 6 C-4 6.99 -4 7.98 -4 9 C-6.88415883 10.44207941 -9.41721528 10.09394887 -12.625 10.0625 C-13.81351563 10.05347656 -15.00203125 10.04445313 -16.2265625 10.03515625 C-17.14179687 10.02355469 -18.05703125 10.01195312 -19 10 C-16.56084238 8.68901807 -14.98301758 7.99811306 -12.1875 7.6875 C-8.46463999 6.88453019 -6.45204643 5.39318106 -3.515625 3.05859375 C-2 2 -2 2 0 2 C0 1.34 0 0.68 0 0 Z " fill="#95BA59" transform="translate(635,384)"/>
<path d="M0 0 C0.66 0.33 1.32 0.66 2 1 C1.48050781 1.44730469 0.96101563 1.89460938 0.42578125 2.35546875 C-0.27160156 2.96003906 -0.96898437 3.56460937 -1.6875 4.1875 C-2.79351562 5.14076172 -2.79351562 5.14076172 -3.921875 6.11328125 C-6.16258692 8.06544887 -6.16258692 8.06544887 -8.4375 10.875 C-12.0463347 13.86769219 -15.42587474 13.89038044 -20 14 C-20 13.34 -20 12.68 -20 12 C-17.03 11.34 -14.06 10.68 -11 10 C-11 9.34 -11 8.68 -11 8 C-9.35546875 6.81640625 -9.35546875 6.81640625 -7.1875 5.5625 C-4.40578131 3.94616437 -2.18823319 2.36770973 0 0 Z " fill="#81A94B" transform="translate(473,455)"/>
<path d="M0 0 C0.66 0.33 1.32 0.66 2 1 C1.38125 1.2475 0.7625 1.495 0.125 1.75 C-2.38895216 3.22879539 -2.8534051 4.37921165 -4 7 C-7.09902323 10.09902323 -9.39147385 9.9898579 -13.75 10.0625 C-14.8225 10.041875 -15.895 10.02125 -17 10 C-17.33 10.99 -17.66 11.98 -18 13 C-18 11.35 -18 9.7 -18 8 C-17.24074219 7.89042969 -16.48148437 7.78085937 -15.69921875 7.66796875 C-14.70535156 7.50941406 -13.71148437 7.35085938 -12.6875 7.1875 C-11.70136719 7.03667969 -10.71523438 6.88585937 -9.69921875 6.73046875 C-6.83669369 5.95580567 -5.79379325 5.30464699 -4 3 C-3.67 2.34 -3.34 1.68 -3 1 C-2.01 0.67 -1.02 0.34 0 0 Z " fill="#6D9043" transform="translate(315,658)"/>
<path d="M0 0 C0.33 0.66 0.66 1.32 1 2 C-3.68735093 7.55652858 -8.65982344 12.72482011 -13.86328125 17.80078125 C-16.1352713 20.00578065 -16.1352713 20.00578065 -18 23 C-18.3515625 20.8359375 -18.3515625 20.8359375 -18 18 C-16.16477363 15.98659631 -14.45118229 14.34752338 -12.375 12.625 C-11.27067197 11.66593558 -10.16908475 10.70370577 -9.0703125 9.73828125 C-8.27415527 9.0414624 -8.27415527 9.0414624 -7.46191406 8.33056641 C-4.67127246 5.7906538 -2.35238848 2.9404856 0 0 Z " fill="#EEF7E6" transform="translate(348,629)"/>
<path d="M0 0 C0.99 0.33 1.98 0.66 3 1 C2.38125 2.010625 1.7625 3.02125 1.125 4.0625 C-2.20377391 9.9291689 -3.27519861 15.257634 -3 22 C-5 20 -5 20 -5.4375 16.625 C-5.33790479 10.62715543 -2.49287513 5.34187529 0 0 Z " fill="#86A653" transform="translate(585,551)"/>
<path d="M0 0 C2.79503834 1.39751917 2.92743498 2.98410209 4 5.875 C5.14303444 8.93797509 6.17112273 11.2566841 8 14 C5.53199953 12.84826645 3.95216435 11.95216435 2 10 C1.375 7.875 1.375 7.875 1 6 C0.34 6.66 -0.32 7.32 -1 8 C-1.66 6.68 -2.32 5.36 -3 4 C-2.01 2.68 -1.02 1.36 0 0 Z " fill="#85AD4A" transform="translate(606,380)"/>
<path d="M0 0 C0.66 0.33 1.32 0.66 2 1 C-1.96 4.96 -5.92 8.92 -10 13 C-10.33 12.01 -10.66 11.02 -11 10 C-9.54474941 8.51780033 -8.085701 7.03932861 -6.625 5.5625 C-5.81289063 4.73878906 -5.00078125 3.91507813 -4.1640625 3.06640625 C-2 1 -2 1 0 0 Z " fill="#A4C666" transform="translate(614,520)"/>
<path d="M0 0 C0.66 0.33 1.32 0.66 2 1 C-3.445 7.93 -3.445 7.93 -9 15 C-9.33 14.01 -9.66 13.02 -10 12 C-8.41796875 9.58984375 -8.41796875 9.58984375 -6.1875 6.9375 C-5.45917969 6.05964844 -4.73085938 5.18179687 -3.98046875 4.27734375 C-2.7024048 2.80769625 -1.3771912 1.3771912 0 0 Z " fill="#A1C768" transform="translate(263,395)"/>
<path d="M0 0 C3.3502463 3.81234923 5.16974789 7.33285711 7 12 C3.7 12 0.4 12 -3 12 C-3 11.67 -3 11.34 -3 11 C-1.02 11 0.96 11 3 11 C2.505 10.113125 2.01 9.22625 1.5 8.3125 C0.05621326 5.12413762 -0.30159922 3.41812454 0 0 Z " fill="#8BA55D" transform="translate(429,755)"/>
<path d="M0 0 C1 3 1 3 -0.21484375 5.69921875 C-0.78332031 6.68535156 -1.35179687 7.67148437 -1.9375 8.6875 C-2.50339844 9.68136719 -3.06929687 10.67523438 -3.65234375 11.69921875 C-4.31943359 12.83810547 -4.31943359 12.83810547 -5 14 C-6.0703125 12.1875 -6.0703125 12.1875 -7 10 C-5.42411818 5.79764848 -3.32494886 2.98098864 0 0 Z " fill="#6D8260" transform="translate(613,441)"/>
<path d="M0 0 C0.66 0.33 1.32 0.66 2 1 C-0.84759727 4.04398329 -2.69846555 5.88998401 -7.04296875 6.09765625 C-7.75066406 6.08605469 -8.45835937 6.07445312 -9.1875 6.0625 C-11.0746875 6.0315625 -11.0746875 6.0315625 -13 6 C-13.33 6.66 -13.66 7.32 -14 8 C-13.67 6.68 -13.34 5.36 -13 4 C-10.03 4 -7.06 4 -4 4 C-4 3.34 -4 2.68 -4 2 C-2.125 0.9375 -2.125 0.9375 0 0 Z " fill="#91B64E" transform="translate(310,660)"/>
<path d="M0 0 C0.66 0.33 1.32 0.66 2 1 C2 1.99 2 2.98 2 4 C0.03125 5.82421875 0.03125 5.82421875 -2.5 7.6875 C-3.75296875 8.62142578 -3.75296875 8.62142578 -5.03125 9.57421875 C-5.6809375 10.04472656 -6.330625 10.51523437 -7 11 C-7.33 10.01 -7.66 9.02 -8 8 C-7.50628906 7.59007812 -7.01257813 7.18015625 -6.50390625 6.7578125 C-5.86324219 6.21898437 -5.22257812 5.68015625 -4.5625 5.125 C-3.92441406 4.59132813 -3.28632813 4.05765625 -2.62890625 3.5078125 C-0.89194996 2.0777243 -0.89194996 2.0777243 0 0 Z " fill="#6D8162" transform="translate(480,580)"/>
<path d="M0 0 C0.66 0 1.32 0 2 0 C3.42944945 2.35438733 4.08661261 3.48032433 3.625 6.25 C3.41875 6.8275 3.2125 7.405 3 8 C2.34 7.01 1.68 6.02 1 5 C-2.465 6.485 -2.465 6.485 -6 8 C-5.1875 5.5625 -5.1875 5.5625 -4 3 C-3.01 2.67 -2.02 2.34 -1 2 C-0.67 1.34 -0.34 0.68 0 0 Z " fill="#81A159" transform="translate(481,447)"/>
<path d="M0 0 C0.66 0.33 1.32 0.66 2 1 C-2.29 5.29 -6.58 9.58 -11 14 C-11.33 13.34 -11.66 12.68 -12 12 C-8.32167983 7.47384007 -4.58913637 3.60575001 0 0 Z " fill="#EAF6DC" transform="translate(649,373)"/>
<path d="M0 0 C0.33 0.66 0.66 1.32 1 2 C-2.75 5 -2.75 5 -5 5 C-5 5.66 -5 6.32 -5 7 C-6.96875 8.5078125 -6.96875 8.5078125 -9.5 10.125 C-10.3353125 10.66382813 -11.170625 11.20265625 -12.03125 11.7578125 C-12.6809375 12.16773438 -13.330625 12.57765625 -14 13 C-12.25153574 9.22911855 -10.14284824 6.75957406 -7 4 C-6.01 4 -5.02 4 -4 4 C-3.67 3.01 -3.34 2.02 -3 1 C-2.01 0.67 -1.02 0.34 0 0 Z " fill="#C7D499" transform="translate(679,745)"/>
<path d="M0 0 C0.66 0.33 1.32 0.66 2 1 C1.02180976 2.31322788 0.0424189 3.62556152 -0.9375 4.9375 C-1.75541016 6.03384766 -1.75541016 6.03384766 -2.58984375 7.15234375 C-4 9 -4 9 -5 10 C-6.66617115 10.04063832 -8.33388095 10.042721 -10 10 C-6.66666667 6.66666667 -3.33333333 3.33333333 0 0 Z " fill="#A5C36E" transform="translate(594,541)"/>
<path d="M0 0 C0.66 0.33 1.32 0.66 2 1 C0.26461877 2.87002288 -1.4859335 4.71988092 -3.25 6.5625 C-3.74113281 7.09552734 -4.23226563 7.62855469 -4.73828125 8.17773438 C-6.203125 9.69140625 -6.203125 9.69140625 -9 12 C-11.359375 11.83984375 -11.359375 11.83984375 -13 11 C-12.48050781 10.62488281 -11.96101563 10.24976563 -11.42578125 9.86328125 C-7.27747551 6.81914561 -3.52678314 3.74720709 0 0 Z " fill="#6D914B" transform="translate(477,453)"/>
<path d="M0 0 C0.33 0.99 0.66 1.98 1 3 C1.66 3 2.32 3 3 3 C3 4.98 3 6.96 3 9 C2.67 8.01 2.34 7.02 2 6 C-0.475 7.485 -0.475 7.485 -3 9 C-2.5020163 5.26512223 -2.12508244 3.18762365 0 0 Z " fill="#597B39" transform="translate(604,385)"/>
<path d="M0 0 C0 0.99 0 1.98 0 3 C-0.66 3 -1.32 3 -2 3 C-2 3.66 -2 4.32 -2 5 C-3.75 6.5078125 -3.75 6.5078125 -6 8.125 C-6.7425 8.66382813 -7.485 9.20265625 -8.25 9.7578125 C-8.8275 10.16773438 -9.405 10.57765625 -10 11 C-8.64763423 8.06120516 -7.10057341 5.70767089 -5 3.25 C-4.484375 2.63640625 -3.96875 2.0228125 -3.4375 1.390625 C-2 0 -2 0 0 0 Z " fill="#58714A" transform="translate(377,632)"/>
<path d="M0 0 C2.375 -0.125 2.375 -0.125 5 0 C5.66 0.66 6.32 1.32 7 2 C8.85483454 2.60713803 10.73421385 3.14131052 12.625 3.625 C13.62789063 3.88539063 14.63078125 4.14578125 15.6640625 4.4140625 C16.82035156 4.70410156 16.82035156 4.70410156 18 5 C18 5.33 18 5.66 18 6 C11.38914524 5.51030705 6.05022986 3.66557258 0 1 C0 0.67 0 0.34 0 0 Z " fill="#C4CDC2" transform="translate(363,750)"/>
<path d="M0 0 C-1.55500981 3.81684226 -4.03595495 6.19195732 -7 9 C-7.99 8.67 -8.98 8.34 -10 8 C-8.71451591 6.66070495 -7.42141845 5.32871357 -6.125 4 C-5.04605469 2.88625 -5.04605469 2.88625 -3.9453125 1.75 C-2 0 -2 0 0 0 Z " fill="#637C57" transform="translate(397,610)"/>
<path d="M0 0 C0.66 0 1.32 0 2 0 C2.17015625 0.62648438 2.3403125 1.25296875 2.515625 1.8984375 C2.75796875 2.71570313 3.0003125 3.53296875 3.25 4.375 C3.59804688 5.59316406 3.59804688 5.59316406 3.953125 6.8359375 C5.2214892 9.45785454 6.32423308 9.99382318 9 11 C6.625 11.625 6.625 11.625 4 12 C1.57869669 9.57869669 1.47159496 8.19888623 0.875 4.875 C0.70742188 3.96492188 0.53984375 3.05484375 0.3671875 2.1171875 C0.24601562 1.41851562 0.12484375 0.71984375 0 0 Z " fill="#D2DCC9" transform="translate(501,506)"/>
<path d="M0 0 C0 3 0 3 -2.5 5.6875 C-3.325 6.450625 -4.15 7.21375 -5 8 C-5.66 7.67 -6.32 7.34 -7 7 C-5.12050295 3.42895561 -3.82946843 1.45255699 0 0 Z " fill="#4C6A3B" transform="translate(464,553)"/>
<path d="M0 0 C3.3 0 6.6 0 10 0 C9.39816251 2.02045442 8.72693904 4.02111039 8 6 C7.01 6.495 7.01 6.495 6 7 C6.33 5.02 6.66 3.04 7 1 C4.69 1 2.38 1 0 1 C0 0.67 0 0.34 0 0 Z " fill="#9FB974" transform="translate(425,734)"/>
<path d="M0 0 C0.66 0.33 1.32 0.66 2 1 C0.33333333 2.66666667 -1.33333333 4.33333333 -3 6 C-3.721875 6.763125 -4.44375 7.52625 -5.1875 8.3125 C-7 10 -7 10 -9 10 C-7.84906278 6.54718834 -6.6794007 5.61917837 -3.9375 3.3125 C-2.83728516 2.37857422 -2.83728516 2.37857422 -1.71484375 1.42578125 C-1.14894531 0.95527344 -0.58304688 0.48476563 0 0 Z " fill="#668453" transform="translate(531,499)"/>
<path d="M0 0 C0.33 0.66 0.66 1.32 1 2 C-1.31 4.64 -3.62 7.28 -6 10 C-6.66 9.67 -7.32 9.34 -8 9 C-5.36 6.03 -2.72 3.06 0 0 Z " fill="#AECC72" transform="translate(456,705)"/>
<path d="M0 0 C2.18975773 3.28463659 2.99806563 6.20696275 4 10 C2.68 9.34 1.36 8.68 0 8 C0 5.36 0 2.72 0 0 Z " fill="#8AA080" transform="translate(330,652)"/>
<path d="M0 0 C0.66 0.66 1.32 1.32 2 2 C-0.64 3.98 -3.28 5.96 -6 8 C-5.67 6.68 -5.34 5.36 -5 4 C-4.0409375 3.8453125 -4.0409375 3.8453125 -3.0625 3.6875 C-2.381875 3.460625 -1.70125 3.23375 -1 3 C-0.67 2.01 -0.34 1.02 0 0 Z " fill="#6F8064" transform="translate(453,604)"/>
<path d="M0 0 C-5.5 4 -5.5 4 -10 4 C-10 3.34 -10 2.68 -10 2 C-8.71211992 1.46987262 -7.41953322 0.9511671 -6.125 0.4375 C-5.40570313 0.14746094 -4.68640625 -0.14257812 -3.9453125 -0.44140625 C-2 -1 -2 -1 0 0 Z " fill="#5B7D40" transform="translate(465,467)"/>
<path d="M0 0 C0.66 0.33 1.32 0.66 2 1 C0.35 2.98 -1.3 4.96 -3 7 C-3.33 6.01 -3.66 5.02 -4 4 C-2.68 2.68 -1.36 1.36 0 0 Z " fill="#A6CC6A" transform="translate(647,210)"/>
<path d="M0 0 C0.33 0.66 0.66 1.32 1 2 C-1.3125 4.5 -1.3125 4.5 -4 7 C-4.99 7 -5.98 7 -7 7 C-5.71034824 5.62437146 -4.37310707 4.29233607 -3 3 C-2.34 3 -1.68 3 -1 3 C-0.67 2.01 -0.34 1.02 0 0 Z " fill="#557441" transform="translate(468,559)"/>
</svg>